<?xml version="1.0"?>
<svg xmlns="http://www.w3.org/2000/svg" id="Layer_1" data-name="Layer 1" viewBox="0 0 64 64"><title>Icons8 RSL Colored Part 9</title><rect x="5" y="15" width="54" height="40" style="fill:#c5e4fa;"/><polygon points="38.11 55 59 34.11 59 16 56.21 16 17.21 55 38.11 55" style="fill:#e3f2ff;"/><polygon points="5.29 55 13.64 55 52.64 16 44.29 16 5.29 55" style="fill:#e3f2ff;"/><polygon points="5 51.71 40.71 16 36.75 16 5 47.75 5 51.71" style="fill:#e3f2ff;"/><rect x="5" y="9" width="54" height="10" rx="2" ry="2" style="fill:#acb7d0;"/><rect x="13" y="35" width="16" height="12" style="fill:#f9e3ae;"/><rect x="13" y="25" width="38" height="4" style="fill:#72caaf;"/><rect x="13" y="25" width="22" height="4" style="fill:#eb9697;"/><path d="M55,18H51a1,1,0,0,0,0,2h4a1,1,0,0,0,0-2Z" style="fill:#8d6c9f;"/><path d="M57,8H7a3,3,0,0,0-3,3V53a3,3,0,0,0,3,3H57a3,3,0,0,0,3-3V11A3,3,0,0,0,57,8Zm1,45a1,1,0,0,1-1,1H7a1,1,0,0,1-1-1V20H47a1,1,0,0,0,0-2H6V11a1,1,0,0,1,1-1H57a1,1,0,0,1,1,1Z" style="fill:#8d6c9f;"/><path d="M20,12a1,1,0,0,0-1,1v2a1,1,0,0,0,2,0V13A1,1,0,0,0,20,12Z" style="fill:#8d6c9f;"/><path d="M15,12a1,1,0,0,0-1,1v2a1,1,0,0,0,2,0V13A1,1,0,0,0,15,12Z" style="fill:#8d6c9f;"/><path d="M10,12a1,1,0,0,0-1,1v2a1,1,0,0,0,2,0V13A1,1,0,0,0,10,12Z" style="fill:#8d6c9f;"/><path d="M35,12a1,1,0,0,0-1,1v2a1,1,0,0,0,2,0V13A1,1,0,0,0,35,12Z" style="fill:#8d6c9f;"/><path d="M35,25a1,1,0,0,0-1,1v2a1,1,0,0,0,2,0V26A1,1,0,0,0,35,25Z" style="fill:#8d6c9f;"/><path d="M40,12a1,1,0,0,0-1,1v2a1,1,0,0,0,2,0V13A1,1,0,0,0,40,12Z" style="fill:#8d6c9f;"/><path d="M45,12a1,1,0,0,0-1,1v2a1,1,0,0,0,2,0V13A1,1,0,0,0,45,12Z" style="fill:#8d6c9f;"/><path d="M50,16a1,1,0,0,0,1-1V13a1,1,0,0,0-2,0v2A1,1,0,0,0,50,16Z" style="fill:#8d6c9f;"/><path d="M55,12a1,1,0,0,0-1,1v2a1,1,0,0,0,2,0V13A1,1,0,0,0,55,12Z" style="fill:#8d6c9f;"/><path d="M25,12a1,1,0,0,0-1,1v2a1,1,0,0,0,2,0V13A1,1,0,0,0,25,12Z" style="fill:#8d6c9f;"/><path d="M30,12a1,1,0,0,0-1,1v2a1,1,0,0,0,2,0V13A1,1,0,0,0,30,12Z" style="fill:#8d6c9f;"/><path d="M51,24H13a1,1,0,0,0-1,1v4a1,1,0,0,0,1,1H51a1,1,0,0,0,1-1V25A1,1,0,0,0,51,24Zm-1,4H14V26H50Z" style="fill:#8d6c9f;"/><path d="M29,34H13a1,1,0,0,0-1,1V47a1,1,0,0,0,1,1H29a1,1,0,0,0,1-1V35A1,1,0,0,0,29,34ZM28,46H14V36H28Z" style="fill:#8d6c9f;"/><path d="M49,40a1,1,0,0,0,0-2H47a1,1,0,0,0,0,2Z" style="fill:#8d6c9f;"/><path d="M35,40h8a1,1,0,0,0,0-2H35a1,1,0,0,0,0,2Z" style="fill:#8d6c9f;"/><path d="M41,46H35a1,1,0,0,0,0,2h6a1,1,0,0,0,0-2Z" style="fill:#8d6c9f;"/><path d="M51,34H35a1,1,0,0,0,0,2H51a1,1,0,0,0,0-2Z" style="fill:#8d6c9f;"/><path d="M51,42H35a1,1,0,0,0,0,2H51a1,1,0,0,0,0-2Z" style="fill:#8d6c9f;"/></svg>
